<?xml version="1.0" encoding="utf-8"?>
<!-- Generator: Adobe Illustrator 21.1.0, SVG Export Plug-In . SVG Version: 6.00 Build 0)  -->
<svg version="1.1" id="icon-instagram" xmlns="http://www.w3.org/2000/svg" xmlns:xlink="http://www.w3.org/1999/xlink" x="0px"
	 y="0px" viewBox="0 0 1366 768" style="enable-background:new 0 0 1366 768;" xml:space="preserve">
<style type="text/css">
	.st0{fill:#F0F0F0;}
</style>
<title>instagram-icon-25x25</title>
<path class="st0" d="M683,69.1c102.6,0,114.6,0,155.1,2.2c24.3,0.3,48.4,4.8,71.3,13.2c16.7,6.2,31.8,16.1,44.2,28.9
	c12.8,12.4,22.7,27.5,28.9,44.2c8.5,22.8,12.9,46.9,13.2,71.3c1.8,40.6,2.2,52.5,2.2,155.1s0,114.6-2.2,155.1
	c-0.3,24.3-4.8,48.4-13.2,71.3c-12.9,33.4-39.4,59.9-72.8,72.8c-22.8,8.5-46.9,12.9-71.3,13.2c-40.6,1.8-52.5,2.2-155.1,2.2
	s-114.6,0-155.1-2.2c-24.3-0.3-48.4-4.8-71.3-13.2c-16.7-6.2-31.8-16.1-44.2-28.9c-12.8-12.4-22.7-27.5-28.9-44.2
	c-8.5-22.8-12.9-46.9-13.2-71.3c-1.8-40.6-2.2-52.5-2.2-155.1s0-114.6,2.2-155.1c0.3-24.3,4.8-48.4,13.2-71.3
	c6.2-16.7,16.1-31.8,28.9-44.2c12.4-12.8,27.5-22.7,44.2-28.9c22.8-8.5,46.9-12.9,71.3-13.2c40.6-1.8,52.5-2.2,155.1-2.2 M683,0
	C578.9,0,565.6,0,524.8,2.5c-31.5,0.7-62.7,6.8-92.2,17.8c-26,9.5-49.6,24.6-69.1,44.2c-19.5,19.2-34.6,42.3-44.2,67.9
	c-11.1,29.5-17.1,60.7-17.8,92.2C299,266.6,299,279.9,299,384s0,117.4,2.5,158.2c0.7,31.5,6.8,62.7,17.8,92.2
	c9.5,26,24.6,49.6,44.2,69.1c19.2,19.5,42.3,34.6,67.9,44.2c29.5,11,60.7,17.1,92.2,17.8c42.1,2.5,55.3,2.5,159.4,2.5
	s117.4,0,158.2-2.5c31.5-0.7,62.7-6.8,92.2-17.8c51.7-19.9,92.5-60.8,112.4-112.4c11.1-29.5,17.1-60.7,17.8-92.2
	c3.4-41.8,3.4-55,3.4-159.1s0-117.4-2.5-158.2c-0.7-31.5-6.8-62.7-17.8-92.2c-9.5-26-24.6-49.6-44.2-69.1
	c-19.2-19.5-42.3-34.6-67.9-44.2c-29.5-11-60.7-17.1-92.2-17.8C800.4,0,787.1,0,683,0"/>
<path class="st0" d="M683,186.8c-108.9,0-197.2,88.3-197.2,197.2S574.1,581.2,683,581.2S880.2,492.9,880.2,384
	S791.9,186.8,683,186.8L683,186.8 M683,512.1c-70.7,0-128.1-57.4-128.1-128.1S612.3,255.9,683,255.9S811.1,313.3,811.1,384l0,0
	C811.1,454.7,753.7,512.1,683,512.1 M934,179.1c0,25.4-20.6,46.1-46.1,46.1c-25.4,0-46.1-20.6-46.1-46.1s20.6-46.1,46.1-46.1
	C913.4,133,934,153.6,934,179.1"/>
</svg>
