<svg xmlns="http://www.w3.org/2000/svg" viewBox="0 0 25 25" id="icon-instagram" width="100%" height="100%"><title>instagram-icon-25x25</title><path d="M12.5 2.25c3.34 0 3.73 0 5.05.07a6.92 6.92 0 0 1 2.32.43 3.87 3.87 0 0 1 1.44.94 3.87 3.87 0 0 1 .94 1.44 6.92 6.92 0 0 1 .43 2.32c.06 1.32.07 1.71.07 5.05s0 3.73-.07 5.05a6.92 6.92 0 0 1-.43 2.32 4.14 4.14 0 0 1-2.37 2.37 6.92 6.92 0 0 1-2.32.43c-1.32.06-1.71.07-5.05.07s-3.73 0-5.05-.07a6.92 6.92 0 0 1-2.32-.43 3.87 3.87 0 0 1-1.44-.94 3.87 3.87 0 0 1-.94-1.44 6.92 6.92 0 0 1-.43-2.32c-.06-1.32-.07-1.71-.07-5.05s0-3.73.07-5.05a6.92 6.92 0 0 1 .43-2.32 3.87 3.87 0 0 1 .94-1.44 3.87 3.87 0 0 1 1.44-.94 6.92 6.92 0 0 1 2.32-.43c1.32-.06 1.71-.07 5.05-.07M12.5 0C9.11 0 8.68 0 7.35.08a9.18 9.18 0 0 0-3 .58A6.13 6.13 0 0 0 2.1 2.1 6.13 6.13 0 0 0 .66 4.31a9.17 9.17 0 0 0-.58 3C0 8.68 0 9.11 0 12.5s0 3.82.08 5.15a9.17 9.17 0 0 0 .58 3A6.13 6.13 0 0 0 2.1 22.9a6.13 6.13 0 0 0 2.21 1.44 9.18 9.18 0 0 0 3 .58c1.37.08 1.8.08 5.19.08s3.82 0 5.15-.08a9.18 9.18 0 0 0 3-.58 6.39 6.39 0 0 0 3.66-3.66 9.17 9.17 0 0 0 .58-3c.11-1.36.11-1.79.11-5.18s0-3.82-.08-5.15a9.17 9.17 0 0 0-.58-3A6.13 6.13 0 0 0 22.9 2.1 6.13 6.13 0 0 0 20.69.66a9.18 9.18 0 0 0-3-.58C16.32 0 15.89 0 12.5 0"></path><path d="M12.5 6.08a6.42 6.42 0 1 0 6.42 6.42 6.42 6.42 0 0 0-6.42-6.42m0 10.59a4.17 4.17 0 1 1 4.17-4.17 4.17 4.17 0 0 1-4.17 4.17M20.67 5.83a1.5 1.5 0 1 1-1.5-1.5 1.5 1.5 0 0 1 1.5 1.5"></path></svg>